# xmcd CD database file
#
# Track frame offsets:
#	150
#	21154
#	27088
#	50570
#	71413
#	103533
#	128671
#	162437
#	187978
#
# Disc length: 2724 seconds
#
# Revision: 2
# Processed by: cddbd v1.5.2PL0 Copyright (c) Steve Scherf et al.
# Submitted via: CDex 1.51
#
DISCID=6e0aa209
DTITLE=JEFF BECK and THE BIG TOWN PLAYBOYS - Exhaust Note(30 November 2007) CD-4
DYEAR=2007
DGENRE=Blues Rock
TTITLE0=Scatterbrain
TTITLE1=Goodbye Pork Pie Hat
TTITLE2=Brush With The Blues
TTITLE3=Space Boogie
TTITLE4=Blanket(With Imogen Heap)
TTITLE5=Big Block
TTITLE6=A Day In The Life
TTITLE7=Rollin' And Tumblin'(With Imogen Heap)
TTITLE8=Where Were You
EXTD=YEAR: 2007
EXTT0=
EXTT1=
EXTT2=
EXTT3=
EXTT4=
EXTT5=
EXTT6=
EXTT7=
EXTT8=
PLAYORDER=
